<svg xmlns="http://www.w3.org/2000/svg" xml:space="preserve" width="402" height="117" version="1.1" viewBox="0 0 4020 1170" style="image-rendering:optimizeQuality;shape-rendering:geometricPrecision;text-rendering:geometricPrecision"><defs><style type="text/css">
    .fil0 {fill:#FF1744}
    .fil1 {fill:#FEFEFE;fill-rule:nonzero}
    .fil2 {fill:#FF1744;fill-rule:nonzero}
   </style></defs><path class="fil0" d="M733 880l-393 0-122 270-218 0 536-1150 535 1150-220 0-118-270zm-314-178l237 0-96-214 0-1c-7-17-14-35-20-53-1-3-2-6-2-8-1 2-2 4-2 6-6 18-13 37-20 55l0 1-97 214z"/><path class="fil1" d="M392 720l292 0-108-239c-6-15-12-33-19-53-6-20-13-42-20-66-5 23-12 44-18 64-7 20-13 38-20 55l-107 239zm471 412l-119-270-415 0-122 270-179 0 508-1090 507 1090-180 0z"/><path class="fil2" d="M621 720l61-1-20-49c39-56 66-121 76-192l316 661-191-7-126-261-402-1-128 262-193 8 148-297c41 13 85 19 130 19 130 0 247-54 329-142z"/><path class="fil2" d="M1245 746c12-32 28-56 47-71 20-16 44-23 73-23 15 0 31 2 46 5 15 4 30 10 44 16l-39 94c-10-6-20-11-31-15-11-3-23-4-37-4-37 0-63 14-79 44-16 29-24 78-24 147l0 212-110 0 0-484 110 0 0 79z"/><path class="fil2" d="M1865 908c0-50-12-89-35-116-23-28-56-42-97-42-42 0-75 14-99 43-24 28-36 68-36 119 0 51 12 91 35 119 23 28 56 42 98 42 40 0 72-16 97-46 24-30 37-69 37-119zm-3-546l110 0 0 789-110 0 0-63c-20 28-43 49-69 62-26 14-57 20-91 20-68 0-121-23-160-70-40-46-59-110-59-191 0-77 20-139 60-186 40-48 92-71 157-71 39 0 73 8 101 24 27 17 48 40 61 71l0-385z"/><path class="fil2" d="M2232 668l0 272c0 47 9 81 29 101 19 20 50 31 93 31 44 0 75-11 94-31 20-20 29-54 29-101l0-272 111 0 0 239c0 92-19 159-56 201-37 42-96 62-177 62-82 0-141-20-178-62-37-41-56-108-56-201l0-239 111 0z"/><path class="fil2" d="M2903 858l208 0-77-170c-4-11-9-23-13-37-5-14-10-30-15-47-4 16-8 31-13 45-4 14-9 27-13 39l-77 170zm335 293l-85-192-295 0-86 192-127 0 360-774 361 774-128 0z"/><path class="fil2" d="M3417 460c0-18 7-35 20-48 14-14 30-21 50-21 19 0 36 7 49 20 13 13 19 30 19 49 0 20-6 36-19 50-14 13-30 20-49 20-20 0-36-7-50-21-13-13-20-30-20-49zm14 691l0-483 111 0 0 483-111 0z"/><path class="fil2" d="M3810 746c12-32 27-56 47-71 19-16 43-23 72-23 16 0 31 2 46 5 16 4 30 10 45 16l-40 94c-9-6-20-11-30-15-12-3-24-4-37-4-37 0-63 14-79 44-16 29-24 78-24 147l0 212-111 0 0-484 111 0 0 79z"/></svg>
